<svg width="180" height="82" viewBox="0 0 180 82" fill="none" xmlns="http://www.w3.org/2000/svg">
<g clip-path="url(#clip0_14_50)">
<path d="M15 15C15 12.2386 17.2386 10 20 10H41C43.7614 10 46 12.2386 46 15V75H15V15Z" fill="#E10B0B" fill-opacity="0.5"/>
<path d="M15 15C15 12.2386 17.2386 10 20 10H41C43.7614 10 46 12.2386 46 15V75H15V15Z" fill="#FF6B00" fill-opacity="0.5"/>
<path d="M35 45.5781L32.488 45.4821V48.1541L35 48.9381V51.9941L23.48 47.8821V42.6021L35 42.5381V45.5781ZM26.28 46.2341L30.344 47.4981V45.4021L26.28 45.2261V46.2341ZM35 35.3716V38.2676L27.32 36.9076C27.736 37.1636 28.136 37.633 28.52 38.3156C28.904 38.9983 29.096 39.713 29.096 40.4596L26.408 40.6676C26.408 39.665 26.104 38.7263 25.496 37.8516C24.8773 36.977 24.2053 36.4383 23.48 36.2356V33.3556L35 35.3716Z" fill="white"/>
<path d="M54 59C54 56.2386 56.2386 54 59 54H80C82.7614 54 85 56.2386 85 59V75H54V59Z" fill="#E10B0B"/>
<path d="M93 59C93 56.2386 95.2386 54 98 54H119C121.761 54 124 56.2386 124 59V75H93V59Z" fill="#E10B0B"/>
<path d="M132 59C132 56.2386 134.239 54 137 54H158C160.761 54 163 56.2386 163 59V75H132V59Z" fill="#E10B0B"/>
</g>
<defs>
<clipPath id="clip0_14_50">
<rect width="180" height="82" fill="white"/>
</clipPath>
</defs>
</svg>
