<svg width="180" height="82" viewBox="0 0 180 82" fill="none" xmlns="http://www.w3.org/2000/svg">
<g clip-path="url(#clip0_13_47)">
<path d="M15 59C15 56.2386 17.2386 54 20 54H41C43.7614 54 46 56.2386 46 59V75H15V59Z" fill="#E10B0B"/>
<path d="M132 59C132 56.2386 134.239 54 137 54H158C160.761 54 163 56.2386 163 59V75H132V59Z" fill="#E10B0B"/>
<path d="M54 15C54 12.2386 56.2386 10 59 10H80C82.7614 10 85 12.2386 85 15V75H54V15Z" fill="#E10B0B" fill-opacity="0.5"/>
<path d="M54 15C54 12.2386 56.2386 10 59 10H80C82.7614 10 85 12.2386 85 15V75H54V15Z" fill="#FF6B00" fill-opacity="0.5"/>
<path d="M93 59C93 56.2386 95.2386 54 98 54H119C121.761 54 124 56.2386 124 59V75H93V59Z" fill="#E10B0B"/>
<path d="M74 46.7109L71.488 46.6149V49.2869L74 50.0709V53.1269L62.48 49.0149V43.7349L74 43.6709V46.7109ZM65.28 47.3669L69.344 48.6309V46.5349L65.28 46.3589V47.3669ZM66.928 38.4769C67.2373 38.4769 67.4667 38.4396 67.616 38.3649V41.1969C67.36 41.2609 67.0293 41.2929 66.624 41.2929C65.3333 41.2929 64.304 40.8609 63.536 39.9969C62.7573 39.1223 62.368 37.8743 62.368 36.2529C62.368 33.6609 63.4133 32.3649 65.504 32.3649C66.2507 32.3649 66.9493 32.5463 67.6 32.9089C68.24 33.2716 68.768 33.7143 69.184 34.2369C69.5893 34.7596 69.9467 35.2823 70.256 35.8049C70.5547 36.3276 70.8107 36.7809 71.024 37.1649C71.2267 37.5489 71.3813 37.7569 71.488 37.7889H71.504V33.5169L74 33.9649V42.3329L72.816 42.1249C72.144 42.0076 71.5467 41.7516 71.024 41.3569C70.4907 40.9623 70.0747 40.5143 69.776 40.0129C69.4773 39.5116 69.184 38.9836 68.896 38.4289C68.5973 37.8636 68.336 37.3516 68.112 36.8929C67.8773 36.4343 67.5787 36.0556 67.216 35.7569C66.8533 35.4476 66.448 35.2929 66 35.2929C65.232 35.2929 64.848 35.7249 64.848 36.5889C64.848 37.1863 65.04 37.6503 65.424 37.9809C65.7973 38.3116 66.2987 38.4769 66.928 38.4769Z" fill="white"/>
</g>
<defs>
<clipPath id="clip0_13_47">
<rect width="180" height="82" fill="white"/>
</clipPath>
</defs>
</svg>
