<svg width="180" height="82" viewBox="0 0 180 82" fill="none" xmlns="http://www.w3.org/2000/svg">
<g clip-path="url(#clip0_13_49)">
<path d="M131 15C131 12.2386 133.239 10 136 10H157C159.761 10 162 12.2386 162 15V75H131V15Z" fill="#E10B0B" fill-opacity="0.5"/>
<path d="M131 15C131 12.2386 133.239 10 136 10H157C159.761 10 162 12.2386 162 15V75H131V15Z" fill="#FF6B00" fill-opacity="0.5"/>
<path d="M139.48 45.8677C139.48 44.6517 139.747 43.7877 140.28 43.2757C140.685 42.8917 141.197 42.6997 141.816 42.6997C142.029 42.6997 142.253 42.7211 142.488 42.7637L143.256 42.9077C143.864 43.0251 144.339 43.2544 144.68 43.5957C145.021 43.9264 145.192 44.2197 145.192 44.4757L145.32 44.4917C145.32 44.1931 145.485 43.8891 145.816 43.5797C146.147 43.2704 146.536 43.1157 146.984 43.1157C147.165 43.1157 147.357 43.1371 147.56 43.1797L148.056 43.2757C148.973 43.4464 149.693 43.8571 150.216 44.5077C150.739 45.1477 151 46.0437 151 47.1957V52.5397L139.48 50.5077V45.8677ZM146.296 47.3077V48.8277L148.504 49.2117V47.6917C148.504 47.6704 148.504 47.6491 148.504 47.6277C148.504 47.1371 148.392 46.7477 148.168 46.4597C147.933 46.1717 147.651 46.0277 147.32 46.0277C146.637 46.0277 146.296 46.4544 146.296 47.3077ZM141.976 46.8757V48.0757L144.36 48.4917V47.3077C144.36 46.2837 143.912 45.7717 143.016 45.7717C142.707 45.7717 142.456 45.8677 142.264 46.0597C142.072 46.2411 141.976 46.5131 141.976 46.8757ZM143.928 38.3441C144.237 38.3441 144.467 38.3068 144.616 38.2321V41.0641C144.36 41.1281 144.029 41.1601 143.624 41.1601C142.333 41.1601 141.304 40.7281 140.536 39.8641C139.757 38.9895 139.368 37.7415 139.368 36.1201C139.368 33.5281 140.413 32.2321 142.504 32.2321C143.251 32.2321 143.949 32.4135 144.6 32.7761C145.24 33.1388 145.768 33.5815 146.184 34.1041C146.589 34.6268 146.947 35.1495 147.256 35.6721C147.555 36.1948 147.811 36.6481 148.024 37.0321C148.227 37.4161 148.381 37.6241 148.488 37.6561H148.504V33.3841L151 33.8321V42.2001L149.816 41.9921C149.144 41.8748 148.547 41.6188 148.024 41.2241C147.491 40.8295 147.075 40.3815 146.776 39.8801C146.477 39.3788 146.184 38.8508 145.896 38.2961C145.597 37.7308 145.336 37.2188 145.112 36.7601C144.877 36.3015 144.579 35.9228 144.216 35.6241C143.853 35.3148 143.448 35.1601 143 35.1601C142.232 35.1601 141.848 35.5921 141.848 36.4561C141.848 37.0535 142.04 37.5175 142.424 37.8481C142.797 38.1788 143.299 38.3441 143.928 38.3441Z" fill="white"/>
<path d="M93 59C93 56.2386 95.2386 54 98 54H119C121.761 54 124 56.2386 124 59V75H93V59Z" fill="#E10B0B"/>
<path d="M54 59C54 56.2386 56.2386 54 59 54H80C82.7614 54 85 56.2386 85 59V75H54V59Z" fill="#E10B0B"/>
<path d="M15 59C15 56.2386 17.2386 54 20 54H41C43.7614 54 46 56.2386 46 59V75H15V59Z" fill="#E10B0B"/>
</g>
<defs>
<clipPath id="clip0_13_49">
<rect width="180" height="82" fill="white"/>
</clipPath>
</defs>
</svg>
