<svg width="180" height="82" viewBox="0 0 180 82" fill="none" xmlns="http://www.w3.org/2000/svg">
<g clip-path="url(#clip0_13_48)">
<path d="M93 15C93 12.2386 95.2386 10 98 10H119C121.761 10 124 12.2386 124 15V75H93V15Z" fill="#E10B0B" fill-opacity="0.5"/>
<path d="M93 15C93 12.2386 95.2386 10 98 10H119C121.761 10 124 12.2386 124 15V75H93V15Z" fill="#FF6B00" fill-opacity="0.5"/>
<path d="M101.48 44.8287C101.48 43.6127 101.747 42.7487 102.28 42.2367C102.685 41.8527 103.197 41.6607 103.816 41.6607C104.029 41.6607 104.253 41.682 104.488 41.7247L105.256 41.8687C105.864 41.986 106.339 42.2154 106.68 42.5567C107.021 42.8874 107.192 43.1807 107.192 43.4367L107.32 43.4527C107.32 43.154 107.485 42.85 107.816 42.5407C108.147 42.2314 108.536 42.0767 108.984 42.0767C109.165 42.0767 109.357 42.098 109.56 42.1407L110.056 42.2367C110.973 42.4074 111.693 42.818 112.216 43.4687C112.739 44.1087 113 45.0047 113 46.1567V51.5007L101.48 49.4687V44.8287ZM108.296 46.2687V47.7887L110.504 48.1727V46.6527C110.504 46.6314 110.504 46.61 110.504 46.5887C110.504 46.098 110.392 45.7087 110.168 45.4207C109.933 45.1327 109.651 44.9887 109.32 44.9887C108.637 44.9887 108.296 45.4154 108.296 46.2687ZM103.976 45.8367V47.0367L106.36 47.4527V46.2687C106.36 45.2447 105.912 44.7327 105.016 44.7327C104.707 44.7327 104.456 44.8287 104.264 45.0207C104.072 45.202 103.976 45.474 103.976 45.8367ZM113 35.1451V38.0411L105.32 36.6811C105.736 36.9371 106.136 37.4064 106.52 38.0891C106.904 38.7717 107.096 39.4864 107.096 40.2331L104.408 40.4411C104.408 39.4384 104.104 38.4997 103.496 37.6251C102.877 36.7504 102.205 36.2117 101.48 36.0091V33.1291L113 35.1451Z" fill="white"/>
<path d="M132 59C132 56.2386 134.239 54 137 54H158C160.761 54 163 56.2386 163 59V75H132V59Z" fill="#E10B0B"/>
<path d="M54 59C54 56.2386 56.2386 54 59 54H80C82.7614 54 85 56.2386 85 59V75H54V59Z" fill="#E10B0B"/>
<path d="M15 59C15 56.2386 17.2386 54 20 54H41C43.7614 54 46 56.2386 46 59V75H15V59Z" fill="#E10B0B"/>
</g>
<defs>
<clipPath id="clip0_13_48">
<rect width="180" height="82" fill="white"/>
</clipPath>
</defs>
</svg>
